#N canvas 438 305 450 300 12;
#X obj 180 102 mpu6050rpi;
#X obj 169 42 bng 15 250 50 0 empty empty empty 17 7 0 10 -262144 -1
-1;
#X obj 142 177 print x;
#X obj 201 177 print y;
#X obj 214 37 bng 15 250 50 0 empty empty empty 17 7 0 10 -262144 -1
-1;
#X obj 285 126 print offsetlist;
#X obj 259 177 print z;
#X msg 310 69 43;
#X msg 266 33 23 22 21 20 19 18;
#X connect 0 0 2 0;
#X connect 0 1 3 0;
#X connect 0 2 6 0;
#X connect 0 3 5 0;
#X connect 1 0 0 0;
#X connect 4 0 0 1;
#X connect 7 0 0 2;
#X connect 8 0 0 2;
