#N canvas 190 225 611 437 12;
#X obj 85 112 bng 15 250 50 0 empty empty offsets 17 7 0 10 -262144
-1 -1;
#X msg 150 142 15272.2 12368.8 -10832.7 -294.789 -156.235 128.533;
#X obj 20 73 metro 100;
#X obj 150 31 loadbang;
#X obj 20 395 nbx 5 14 -1e+37 1e+37 0 0 empty empty x 0 -8 0 10 -262144
-1 -1 -0.00260531 256;
#X obj 100 355 nbx 10 14 -5000 5000 0 0 empty empty z 0 -8 0 10 -262144
-1 -1 305.352 256;
#X obj 60 374 nbx 5 14 -1e+37 1e+37 0 0 empty empty y 0 -8 0 10 -262144
-1 -1 0.728394 256;
#X obj 20 49 loadbang;
#X msg 194 115 set \$1 \$2 \$3 \$4 \$5 \$6;
#X obj 162 91 t b l;
#X obj 20 168 mpu6050rpi 0 0 0.95;
#X msg 32 98 start;
#X msg 40 127 stop;
#X obj 20 321 unpack f f f;
#X obj 85 295 nbx 5 14 -1e+37 1e+37 0 0 empty empty x 0 -8 0 10 -262144
-1 -1 0.004 256;
#X obj 165 255 nbx 10 14 -5000 5000 0 0 empty empty z 0 -8 0 10 -262144
-1 -1 0.987 256;
#X obj 125 274 nbx 5 14 -1e+37 1e+37 0 0 empty empty y 0 -8 0 10 -262144
-1 -1 -0.001 256;
#X obj 85 221 unpack f f f;
#X obj 150 196 s \$0-setoffset;
#X obj 162 68 r \$0-setoffset;
#X connect 0 0 10 1;
#X connect 1 0 10 2;
#X connect 2 0 10 0;
#X connect 3 0 1 0;
#X connect 7 0 2 0;
#X connect 8 0 1 0;
#X connect 9 0 1 0;
#X connect 9 1 8 0;
#X connect 10 0 13 0;
#X connect 10 1 17 0;
#X connect 10 2 18 0;
#X connect 11 0 10 0;
#X connect 12 0 10 0;
#X connect 13 0 4 0;
#X connect 13 1 6 0;
#X connect 13 2 5 0;
#X connect 17 0 14 0;
#X connect 17 1 16 0;
#X connect 17 2 15 0;
#X connect 19 0 9 0;
