#N canvas 251 251 611 437 12;
#X obj 86 182 bng 15 250 50 0 empty empty offsets 17 7 0 10 -262144
-1 -1;
#X msg 151 212 15341.6 12345.4 -10823.4 -294.811 -155.865 128.74;
#X obj 21 143 metro 100;
#X obj 151 101 loadbang;
#X obj 21 380 nbx 5 14 -1e+37 1e+37 0 0 empty empty x 0 -8 0 10 -262144
-1 -1 0.0440942 256;
#X obj 101 340 nbx 10 14 -5000 5000 0 0 empty empty z 0 -8 0 10 -262144
-1 -1 5.36776 256;
#X obj 61 359 nbx 5 14 -1e+37 1e+37 0 0 empty empty y 0 -8 0 10 -262144
-1 -1 -0.00425617 256;
#X obj 21 119 loadbang;
#X msg 195 185 set \$1 \$2 \$3 \$4 \$5 \$6;
#X obj 151 275 s \$0-setcal;
#X obj 163 161 t b l;
#X obj 163 138 r \$0-setcal;
#X obj 21 238 mpu6050rpi 0 0 0.95;
#X msg 33 168 start;
#X msg 41 197 stop;
#X obj 21 306 unpack f f f;
#X obj 309 290 print;
#X connect 0 0 12 1;
#X connect 1 0 12 2;
#X connect 2 0 12 0;
#X connect 3 0 1 0;
#X connect 7 0 2 0;
#X connect 8 0 1 0;
#X connect 10 0 1 0;
#X connect 10 1 8 0;
#X connect 11 0 10 0;
#X connect 12 0 15 0;
#X connect 12 1 9 0;
#X connect 12 1 16 0;
#X connect 13 0 12 0;
#X connect 14 0 12 0;
#X connect 15 0 4 0;
#X connect 15 1 6 0;
#X connect 15 2 5 0;
